<?xml version="1.0" encoding="utf-8"?>
<!DOCTYPE svg PUBLIC "-//W3C//DTD SVG 1.0//EN" "http://www.w3.org/TR/2001/REC-SVG-20010904/DTD/svg10.dtd">
<svg version="1.0" xmlns="http://www.w3.org/2000/svg" width="1024px" height="1024px" viewBox="0 0 1024 1024" preserveAspectRatio="xMidYMid meet">
 <g fill="#feffff">
  <path d="M0 512 l0 -512 512 0 512 0 0 512 0 512 -512 0 -512 0 0 -512z m483.8 183.4 c1.7 -0.3 3.4 -1.4 3.8 -2.3 0.4 -0.9 1 -13.9 1.2 -28.9 0.4 -29.6 -0.4 -37.9 -5.2 -51.9 -7.9 -22.8 -17.4 -35.2 -43.1 -56.2 -16.6 -13.5 -26.5 -23 -37.2 -35.5 -18.4 -21.4 -26.6 -28.6 -32.6 -28.6 -3.2 0 -7.6 3.6 -9.3 7.5 -2.9 6.9 2.9 19.4 19.5 41.7 13.5 18.2 15.4 22.1 15.9 31.6 l0.4 7.2 -3.5 0 c-8.5 0 -32.4 -20.9 -40.6 -35.4 -6 -10.6 -10.7 -23.5 -12.7 -34.8 -1.4 -7.9 -1.5 -13.8 -1 -38.8 0.6 -27.3 0.5 -30.1 -1.2 -35.7 -3.1 -9.7 -10.2 -17.3 -16.4 -17.3 -4 0 -5.7 5.5 -10.2 32.7 -6.2 37.3 -7.2 55.5 -3.8 71.8 3.3 15.4 11.9 46.2 14.7 52.4 4.5 9.7 9.6 14.7 48.5 47.2 22.2 18.6 33.3 31.4 38.1 43.7 1.9 5 2.9 14.9 2.9 29.9 0 0.6 68.8 0.3 71.8 -0.3z m128.4 -10.9 c1.6 -26.8 8.2 -35.6 55.4 -74.5 19.9 -16.4 28.6 -25 32.2 -31.9 3.6 -6.7 15.4 -48.2 17.1 -60.6 0.7 -4.4 1.4 -9.1 1.6 -10.5 1.3 -9 -8.2 -74.6 -12.4 -85.3 -2 -5 -6.6 -4.8 -12.6 0.5 -8.2 7.1 -11.1 18.5 -9.5 37.4 1.3 15.4 1.3 39.2 0 47.1 -4 24.8 -15 45.6 -31.6 59.9 -11.3 9.8 -17.3 13.4 -22.2 13.4 l-4.4 0 0.4 -6.3 c0.5 -8.7 4.3 -15.9 17.3 -33.2 11.6 -15.5 19.5 -29.9 19.8 -36.2 0.1 -4.7 -2.1 -8.6 -6.5 -11.2 -6.8 -4.2 -13.8 1.2 -37.7 29.1 -10.4 12.2 -16.7 18 -33.5 31.5 -23.2 18.7 -32.1 28.6 -40 44.8 -8.4 17.3 -12.6 37.8 -10.7 52 1.3 9.3 1.4 16.1 0.2 18.3 -1 2 0.5 21.6 1.9 25 l1 2.2 36.7 -0.2 36.8 -0.3 0.7 -11z m-94.8 -108.6 c12.2 -7.5 41.1 -31 60.1 -48.8 43.8 -41.2 63.3 -66.6 73.1 -95.3 9 -26.4 8.3 -41 -3.2 -64.4 -8.8 -17.9 -22.6 -29.2 -44.7 -36.4 -24 -7.9 -52.6 1.6 -75.5 24.9 -4.6 4.7 -9.1 9.8 -10 11.3 -1.2 2.2 -2.4 2.8 -4.9 2.8 -2.7 0 -3.6 -0.6 -5.8 -4.3 -6 -10.3 -26.9 -27 -39.5 -31.6 -15.7 -5.7 -26.4 -6.9 -39.4 -4.2 -28.6 5.8 -49.2 24.5 -57.1 51.5 -2.3 8.1 -2.5 10.2 -2.1 22.5 0.6 19.2 3.7 29.4 14 46.1 1.9 3 4.6 7.8 6 10.5 3.7 7.2 13.8 20.2 26.3 33.9 13.3 14.7 41.2 41 52.1 49.1 4.5 3.3 8.1 6.6 8.2 7.3 0 0.7 1.5 1.9 3.4 2.7 1.9 0.8 3.6 1.9 3.8 2.4 0.1 0.6 3 3 6.3 5.5 3.3 2.5 6.9 5.4 8 6.5 2.5 2.3 14.5 11.1 15.2 11.1 0.3 0 2.9 -1.4 5.7 -3.1z"/>
 </g>
 <g fill="#912426">
  <path d="M504.2 579 c-3.4 -2.3 -7.4 -5.3 -9 -6.8 -1.6 -1.5 -4.7 -4 -7 -5.6 -2.3 -1.5 -5.6 -4.2 -7.4 -6 -1.8 -1.7 -4.5 -3.7 -6 -4.3 -1.6 -0.7 -2.8 -1.8 -2.8 -2.5 -0.1 -0.7 -3.7 -4 -8.2 -7.3 -10.9 -8.1 -38.8 -34.4 -52.1 -49.1 -12.5 -13.7 -22.6 -26.7 -26.3 -33.9 -1.4 -2.7 -4.1 -7.5 -6 -10.5 -9 -14.6 -14.9 -32.1 -14.2 -42.2 0.1 -2.6 0 -4.8 -0.4 -4.8 -0.4 0 -0.6 -4.2 -0.4 -9.2 1.7 -35.5 25.1 -62.7 60.2 -70 19.7 -4 41.8 0.2 59.2 11.5 8.6 5.6 22.4 18.6 25.8 24.4 l2.5 4.3 3.4 -4.5 c13.8 -18.1 34.8 -31.9 54.9 -36.2 9.5 -2 26.7 -1.2 35.2 1.6 22.4 7.5 36 18.6 44.8 36.5 6.7 13.6 8.7 20.6 9.3 32.6 1.1 22.1 -6.5 46.3 -22.3 70 -11.8 17.9 -28.7 36.6 -56.9 63.1 -26.5 24.8 -62.9 52.9 -68.6 52.9 -0.9 0 -4.4 -1.8 -7.7 -4z"/>
 </g>
 <g fill="#f2dcb9">
  <path d="M408.9 698.3 c-0.1 -0.5 -0.3 -6 -0.4 -12.3 -0.1 -9.3 -0.6 -12.6 -2.4 -17.2 -4.8 -12.4 -15.9 -25.1 -38.1 -43.7 -38.9 -32.5 -44 -37.5 -48.5 -47.2 -2.7 -6.1 -11.3 -36.6 -14.7 -52.4 -3.7 -17.3 -2.6 -39.4 3.8 -77.8 4.7 -28.1 6.1 -32.4 11 -33.3 8.3 -1.5 18 6.2 21.3 17.1 2.4 7.7 2.6 13.7 1.6 43 -0.6 19.4 -0.5 24.5 0.9 32.3 3.5 19.8 12.5 37.9 25.1 50.7 7.3 7.3 17.3 15.3 23.4 18.5 2.4 1.2 2.4 1.2 1.9 -3.3 -0.8 -6.7 -3.9 -12.3 -15.9 -28.5 -21 -28.2 -25.8 -44.2 -15.8 -52.6 6.7 -5.6 15.5 -3.9 24.8 4.8 2.9 2.8 10.4 11 16.6 18.1 13.4 15.6 22.7 24.4 40 38.6 25.7 21 35.2 33.4 43.1 56.2 4.9 14.2 5.6 22 5.2 54.9 -0.2 16.7 -0.8 31 -1.2 31.9 -0.4 0.9 -2.1 2 -3.8 2.3 -4.4 0.9 -77.8 0.7 -77.9 -0.1z"/>
  <path d="M534.1 697.2 c-1.6 -3 -3.4 -28.7 -2.2 -31 1.2 -2.3 1.5 -8.2 0.4 -8.2 -1.5 0 -1.3 -18.9 0.2 -29.4 2 -13.4 4.5 -21.6 10.1 -33.1 7.9 -16.2 16.8 -26.1 40 -44.8 17.3 -13.8 23 -19.3 35.7 -34 19.8 -22.9 25.1 -27.4 33.3 -28.3 4.1 -0.5 5.5 -0.2 8.4 1.8 12.2 8.2 8 24.7 -13.5 53.3 -11 14.7 -16.1 23.5 -17.2 29.8 -0.8 4.9 0.7 4.8 8.3 -0.4 21.2 -14.8 33.4 -31.5 39.9 -54.2 4.8 -17.1 5.5 -29.4 3.4 -57.4 -1.3 -16.8 -0.3 -26.6 3.5 -34.2 6.2 -12.1 20.4 -17.2 24.5 -8.7 3 6.4 9.8 47.4 12.1 73.5 1.2 13.5 0.4 24.4 -3 38.6 -4.4 19 -12.4 45.4 -15.2 50.8 -3.6 6.7 -12.4 15.4 -32.3 31.7 -41.3 34 -50.2 44.4 -54.1 63 -1.1 5 -1.4 9.9 -1 14.7 0.5 5.9 0.3 7.2 -1 7.7 -0.9 0.3 -19.1 0.6 -40.4 0.6 -36.2 0 -39 -0.1 -39.9 -1.8z"/>
 </g>
</svg>